<svg width="20" height="18" viewBox="0 0 20 18" fill="none" xmlns="http://www.w3.org/2000/svg">
<path fill-rule="evenodd" clip-rule="evenodd" d="M1.64103 8.96583C0.890911 9.32626 0.3439 9.21174 0 8.6223C6.63252 2.87411 9.94876 0 9.94876 0C16.2622 5.74819 19.4189 8.6223 19.4189 8.6223C19.1088 9.26059 18.482 9.34074 17.5385 8.86276C12.4559 4.28253 9.91458 1.99241 9.91458 1.99241C4.39888 6.64134 1.64103 8.96583 1.64103 8.96583Z" fill="#F3C971"/>
<path fill-rule="evenodd" clip-rule="evenodd" d="M16.6112 9.29217C12.124 5.3188 9.88033 3.33212 9.88033 3.33212C5.07118 7.27112 2.66663 9.24062 2.66663 9.24062C2.7122 14.485 2.68373 16.9483 2.68373 16.9483C2.71627 17.1027 2.83307 17.2058 3.03414 17.2575C6.33045 17.2546 7.97862 17.2532 7.97862 17.2532C7.98432 14.4249 7.98717 13.0107 7.98717 13.0107C8.01876 12.7185 8.18116 12.5754 8.47433 12.5813C10.0299 12.5756 10.8077 12.5728 10.8077 12.5728C11.0749 12.6743 11.2174 12.8318 11.2351 13.0451C11.2635 15.8333 11.2778 17.2274 11.2778 17.2274C14.5941 17.2217 16.2522 17.2189 16.2522 17.2189C16.4565 17.15 16.5676 16.9726 16.5856 16.6864C16.6027 11.7569 16.6112 9.29217 16.6112 9.29217Z" fill="#F3C971"/>
<path fill-rule="evenodd" clip-rule="evenodd" d="M15.201 4.23382C15.2067 2.68801 15.2096 1.91507 15.2096 1.91507C16.503 1.93798 17.1498 1.94943 17.1498 1.94943C17.1612 4.57735 17.1669 5.8913 17.1669 5.8913C15.8674 4.81012 15.2121 4.25763 15.201 4.23382Z" fill="#F3C971"/>
</svg>
