<svg width="12" height="16" viewBox="0 0 12 16" fill="none" xmlns="http://www.w3.org/2000/svg">
<path d="M10.8992 7.41404L10.918 7.38993L10.9335 7.36361C11.783 5.92126 11.5489 4.31018 10.7847 3.03948C10.424 2.43962 9.88506 2.00587 9.38114 1.61118L9.08982 1.98311L9.38114 1.61117C8.61791 1.01338 7.59116 0.645825 6.23087 0.559592L6.23084 0.55959C6.19608 0.557389 6.17962 0.55456 6.1533 0.550035C6.12772 0.545639 6.09284 0.539642 6.02282 0.531064L5.96985 0.524577L5.91678 0.530065C5.83067 0.538968 5.75207 0.543395 5.66377 0.548368C5.63405 0.550041 5.60323 0.551777 5.57066 0.553765C5.44825 0.561239 5.30911 0.57207 5.16108 0.600245C2.87162 1.03599 1.44916 2.13274 0.75418 3.88989C0.545845 4.41663 0.529012 5.00689 0.527565 5.5468L0.527565 5.54683C0.527052 5.74324 0.558177 5.93249 0.587314 6.09201C0.594123 6.12929 0.600788 6.16482 0.607215 6.1991C0.630352 6.32247 0.650413 6.42944 0.663071 6.54219L0.670257 6.6062L0.694316 6.66595C0.711348 6.70824 0.729975 6.75871 0.750797 6.81512C0.81388 6.98602 0.897102 7.21148 1.01711 7.4297L1.01712 7.42973C1.21155 7.78323 1.49914 8.12216 1.7689 8.44006L1.7865 8.46081C2.07275 8.79821 2.35677 9.13401 2.59704 9.51746L2.99738 9.26661L2.59704 9.51747C3.89517 11.5891 4.57144 13.0486 4.96653 13.9355C4.99862 14.0076 5.02956 14.0775 5.0594 14.145C5.20481 14.4739 5.32427 14.7441 5.42522 14.9092C5.45875 14.964 5.50155 15.0268 5.55521 15.0837C5.60618 15.1377 5.69551 15.2172 5.82747 15.2567C6.1729 15.36 6.3958 15.1114 6.46223 15.0242C6.54211 14.9195 6.6077 14.7829 6.66273 14.6596C6.71486 14.5429 6.77383 14.3994 6.83982 14.2389C6.84847 14.2179 6.85725 14.1965 6.86614 14.1749C7.02172 13.7969 7.23075 13.2951 7.53709 12.6685C8.14921 11.4164 9.15606 9.65341 10.8992 7.41404Z" fill="#F6D076" stroke="#F6D076" stroke-width="0.944882" stroke-miterlimit="22.9256"/>
<path d="M5.91601 7.29664C6.9742 7.29664 7.83202 6.55866 7.83202 5.64832C7.83202 4.73798 6.9742 4 5.91601 4C4.85783 4 4 4.73798 4 5.64832C4 6.55866 4.85783 7.29664 5.91601 7.29664Z" fill="black" fill-opacity="0.87" stroke="black" stroke-opacity="0.87" stroke-width="0.944882" stroke-miterlimit="22.9256"/>
</svg>
