<svg width="23" height="23" viewBox="0 0 23 23" fill="none" xmlns="http://www.w3.org/2000/svg">
<path fill-rule="evenodd" clip-rule="evenodd" d="M10.3715 12.536C8.32543 12.366 7.70065 15.2819 9.59144 15.8198C9.5575 17.4617 9.54061 18.2826 9.54061 18.2826C7.21848 17.3852 6.06527 15.8898 6.08113 13.7962C6.29588 11.826 6.40331 10.8408 6.40331 10.8408C7.59815 10.9476 8.46923 11.0254 9.01645 11.0744C9.48455 11.1161 9.84765 11.2928 9.9633 10.7168C10.0804 10.1324 9.52227 10.0916 9.12253 10.0416C7.58683 9.84923 6.81891 9.75302 6.81891 9.75302C6.85273 9.11271 6.86967 8.7925 6.86967 8.7925C8.00649 8.87985 8.84088 8.94404 9.37295 8.98486C9.77772 9.01593 10.3419 9.18371 10.3726 8.56708C10.4003 8.01375 9.84364 8.04718 9.44163 7.99609C7.76668 7.78267 6.92915 7.67599 6.92915 7.67599C7.00833 7.08488 7.04784 6.7894 7.04784 6.7894C8.32716 6.88136 9.24814 6.94759 9.81079 6.98804C10.2339 7.01838 10.705 7.187 10.6432 6.54375C10.5987 6.08243 10.2228 6.10827 9.86085 6.06043C8.07614 5.82395 7.18374 5.70574 7.18374 5.70574C7.81306 3.43965 9.53715 2.36139 12.3561 2.47111C15.2587 2.79656 16.7907 4.24685 16.952 6.82215C15.9537 6.72825 15.2072 6.65804 14.7127 6.61156C14.2669 6.56959 13.701 6.37906 13.7123 7.07193C13.722 7.66043 14.0991 7.67311 14.5431 7.72477C16.0472 7.9002 16.7993 7.98792 16.7993 7.98792C16.7315 8.66659 16.6976 9.00592 16.6976 9.00592C15.6964 8.88326 14.9622 8.79329 14.4951 8.73612C14.0927 8.68687 13.5131 8.56551 13.5445 9.20818C13.5662 9.65362 13.9908 9.72709 14.3395 9.74915C15.8014 9.84142 16.528 9.94176 16.528 9.94176C16.4547 10.6697 16.4181 11.0338 16.4181 11.0338C15.4025 10.9222 14.6598 10.848 14.1902 10.8113C13.8979 10.7884 13.2871 10.6985 13.342 11.1933C13.3811 11.545 13.7159 11.5624 13.9847 11.5895C15.5166 11.7443 16.2825 11.8219 16.2825 11.8219C16.3298 14.3612 15.9511 16.0223 15.1463 16.805C14.0626 17.93 12.932 18.5102 11.7546 18.5454C11.7711 20.0127 11.7541 20.7242 11.7036 20.68C17.8037 20.038 21.0206 16.9716 21.3538 11.4808C21.5073 8.95096 21.2611 7.38575 19.7067 5.27355C14.8691 -1.29914 3.53764 0.144236 1.85809 9.01315C1.46956 11.0651 1.54538 13.157 2.42523 15.0796C3.61969 17.6901 6.02024 19.5159 9.62656 20.5569C9.67175 21.4984 9.69437 21.9691 9.69437 21.9691C-5.3572 18.5639 -1.93175 -2.04174 13.4251 0.164933C15.6067 0.478331 17.3454 1.1766 19.0595 2.54174C24.997 7.27074 24.1868 16.3585 16.8848 20.8692C14.9107 21.8562 12.6834 22.2502 10.2029 22.0513C10.2821 17.8809 10.3217 15.7957 10.3217 15.7957C8.60967 14.9722 8.65508 13.3189 10.3715 12.536Z" fill="url(#paint0_linear_7_17)"/>
<defs>
<linearGradient id="paint0_linear_7_17" x1="11.7358" y1="22.0991" x2="11.2938" y2="0.00175062" gradientUnits="userSpaceOnUse">
<stop stop-color="#DD9952"/>
<stop offset="1" stop-color="#F7D277"/>
</linearGradient>
</defs>
</svg>
