<svg width="14" height="15" viewBox="0 0 14 15" fill="none" xmlns="http://www.w3.org/2000/svg">
<path d="M4.53515 0.0234308C4.16377 0.0585871 3.94769 0.0960875 3.65171 0.175775C2.95509 0.363275 2.31811 0.706634 1.73853 1.2082C1.59335 1.33359 1.28049 1.65937 1.16007 1.81054C0.521967 2.61093 0.142707 3.53085 0.0402954 4.53515C-0.0013445 4.93359 -0.00584611 5.07538 0.0155365 5.34374C0.0267905 5.48203 0.0425462 5.65312 0.0515494 5.7246C0.169717 6.6832 0.548977 7.57968 1.15219 8.33203C1.26811 8.47734 1.53933 8.7621 1.68788 8.89687C2.35187 9.49804 3.14415 9.89531 4.00959 10.0605C4.471 10.1484 5.07084 10.1613 5.54239 10.0945C6.25477 9.99257 6.98853 9.70195 7.56924 9.29296C7.61425 9.26249 7.66152 9.22968 7.67502 9.22265C7.69866 9.20976 7.85171 9.36562 10.4311 12.0504C12.6043 14.3121 13.1726 14.898 13.2176 14.9215C13.3054 14.966 13.4337 15.0023 13.4866 14.9965C13.6205 14.9812 13.7342 14.9273 13.8287 14.8312C13.9233 14.7363 13.9818 14.6086 13.9964 14.4656C14.002 14.4117 13.9683 14.2769 13.9244 14.1855C13.9019 14.1387 13.3448 13.5527 11.1908 11.3086C9.703 9.7582 8.48531 8.48671 8.48531 8.48203C8.48531 8.47734 8.5202 8.43281 8.56184 8.38124C9.77277 6.91757 10.0811 4.86562 9.35525 3.09492C9.23708 2.80781 9.10991 2.56288 8.92872 2.27929C8.37615 1.4121 7.58274 0.742962 6.65653 0.364447C6.17711 0.167571 5.7911 0.0773373 5.20477 0.0234308C4.91104 -0.00352192 4.8255 -0.00352192 4.53515 0.0234308ZM5.36232 1.10624C6.09608 1.21406 6.72181 1.49296 7.29239 1.96757C7.42518 2.0789 7.67165 2.32734 7.78756 2.46679C8.63949 3.50038 8.9276 4.87734 8.56859 6.18749C8.44142 6.65038 8.19158 7.15898 7.90686 7.53515C7.12245 8.57109 5.93628 9.13593 4.68258 9.06913C3.35911 8.99882 2.17968 8.23476 1.5202 7.02304C1.30412 6.62578 1.14094 6.12538 1.07567 5.66015C1.01714 5.24296 1.02502 4.76367 1.09705 4.35351C1.36827 2.81718 2.49367 1.57148 3.94994 1.19531C4.14689 1.14374 4.34158 1.11093 4.59705 1.08515C4.70284 1.0746 5.24415 1.08984 5.36232 1.10624Z" fill="black"/>
</svg>
